# xmcd CD database file
#
# Track frame offsets:
#	150
#	16711
#	31839
#	47414
#	66167
#	80911
#	100026
#	123260
#	142569
#	159474
#	181005
#	196698
#	214125
#	229159
#	248770
#	268293
#	279252
#	294449
#	311756
#	323903
#
# Disc length: 4552 seconds
#
# Revision: 1
# Processed by: cddbd v1.5.2PL0 Copyright (c) Steve Scherf et al.
# Submitted via: Feurio! 1.68 - http://www.feurio.com
#
DISCID=0911c614
DTITLE=Various Artist - Slow Jams For Christmas 
DYEAR=1999
DGENRE=Holiday
TTITLE0=Luther Vandross - Please Come Home For Christmas
TTITLE1=Faith Evans - Santa Baby
TTITLE2=Marvin Gaye - I Want To Come Home For Christmas
TTITLE3=Boyz II Men - Let It Snow
TTITLE4=Al Green - I'll Be Home For Christmas
TTITLE5=Brian McKnight - Don't Let Me Go
TTITLE6=Jagged Edge - This Christmas
TTITLE7=Babyface - It Came Upon A Midnight Clear
TTITLE8=Nat King Cole and Natalie Cole - The Christmas Song
TTITLE9=The O'Jays - I Can Hardly Wait For Christmas
TTITLE10=Faith Evans - White Christmas
TTITLE11=Vanessa Williams - Merry Christmas Darling
TTITLE12=Dianne Reeves - Christmas Time Is Here
TTITLE13=The Whispers - This Christmas
TTITLE14=Bebe and Cece Winans - Silver Bells
TTITLE15=Nancy Wilson - What Are You Doing New Years Eve
TTITLE16=Al Green - Silent Night
TTITLE17=Bobby Womack - Dear Santa Claus
TTITLE18=Lou Rawls - The First Noel
TTITLE19=Freddie Jackson - Christmas Forever
EXTD=
EXTT0=
EXTT1=
EXTT2=
EXTT3=
EXTT4=
EXTT5=
EXTT6=
EXTT7=
EXTT8=
EXTT9=
EXTT10=
EXTT11=
EXTT12=
EXTT13=
EXTT14=
EXTT15=
EXTT16=
EXTT17=
EXTT18=
EXTT19=
PLAYORDER=
